<?xml version="1.0" encoding="UTF-8"?>
<!DOCTYPE svg PUBLIC "-//W3C//DTD SVG 1.1//EN" "http://www.w3.org/Graphics/SVG/1.1/DTD/svg11.dtd">
<!-- Creator: CorelDRAW 2020 (64-Bit) -->
<svg xmlns="http://www.w3.org/2000/svg" xml:space="preserve" width="118px" height="118px" version="1.1" style="shape-rendering:geometricPrecision; text-rendering:geometricPrecision; image-rendering:optimizeQuality; fill-rule:evenodd; clip-rule:evenodd"
viewBox="0 0 14.65 14.65"
 xmlns:xlink="http://www.w3.org/1999/xlink"
 xmlns:xodm="http://www.corel.com/coreldraw/odm/2003">
 <defs>
  <style type="text/css">
   <![CDATA[
    .fil0 {fill:black}
   ]]>
  </style>
 </defs>
 <g id="Слой_x0020_1">
  <metadata id="CorelCorpID_0Corel-Layer"/>
  <path class="fil0" d="M7.33 0l0 0c1,0 1.83,0.82 1.83,1.83l0 3.67 3.66 0c1.01,0 1.83,0.82 1.83,1.83l0 0c0,1 -0.82,1.83 -1.83,1.83l-3.66 0 0 3.66c0,1.01 -0.83,1.83 -1.83,1.83l0 0c-1.01,0 -1.83,-0.82 -1.83,-1.83l0 -3.66 -3.67 0c-1.01,0 -1.83,-0.83 -1.83,-1.83l0 0c0,-1.01 0.82,-1.83 1.83,-1.83l3.67 0 0 -3.67c0,-1.01 0.82,-1.83 1.83,-1.83z"/>
 </g>
</svg>
